FFmpeg version SVN-r25716, Copyright (c) 2000-2010 the FFmpeg developers  built on Nov 10 2010 12:23:18 with gcc 4.1.2 20080704 (Red Hat 4.1.2-48)  configuration: --enable-libmp3lame --enable-shared --disable-mmx --arch=x86_64  libavutil     50.33. 0 / 50.33. 0  libavcore      0.12. 1 /  0.12. 1  libavcodec    52.94. 4 / 52.94. 4  libavformat   52.84. 0 / 52.84. 0  libavdevice   52. 2. 2 / 52. 2. 2  libavfilter    1.59. 0 /  1.59. 0  libswscale     0.12. 0 /  0.12. 0Seems stream 0 codec frame rate differs from container frame rate: 1800.00 (1800/1) -> 6.00 (6/1)Input #0, mov,mp4,m4a,3gp,3g2,mj2, from '/RAID10/data/converted_video_files/24070.mov':  Metadata:    major_brand     : qt      minor_version   : 537199360    compatible_brands: qt    Duration: 00:00:02.00, start: 0.000000, bitrate: 15124 kb/s    Stream #0.0(eng): Video: qtrle, rgb24, 428x258, 15120 kb/s, 6 fps, 6 tbr, 1800 tbn, 1800 tbc[buffer @ 0xc583790] w:428 h:258 pixfmt:rgb24[ffsink @ 0xc583e60] auto-inserting filter 'auto-inserted scaler 0' between the filter 'src' and the filter 'out'[scale @ 0xc584180] w:428 h:258 fmt:rgb24 -> w:428 h:258 fmt:yuv420p flags:0x4Output #0, flv, to '/RAID10/data/converted_video_files/24070.flv':  Metadata:    encoder         : Lavf52.84.0    Stream #0.0(eng): Video: flv, yuv420p, 428x258, q=2-31, 600 kb/s, 1k tbn, 24 tbcStream mapping:  Stream #0.0 -> #0.0Press [q] to stop encodingframe=    4 fps=  0 q=2.0 size=     365kB time=0.54 bitrate=5516.5kbits/s    frame=   12 fps=  0 q=21.0 Lsize=     365kB time=1.88 bitrate=1594.6kbits/s    video:365kB audio:0kB global headers:0kB muxing overhead 0.107676%676%